<svg xmlns="http://www.w3.org/2000/svg" width="1002.169" height="313.014" viewBox="0 0 1002.169 313.014">
  <g id="logo-group" transform="translate(-320.863 -324.301)">
    <g id="logo-center" transform="translate(320.863 324.301)">
      <g id="title">
        <path id="path295555" d="M838.412,156.293h52.327L797.433-89.579h-42.87l-92.99,245.872H713.9l19.859-54.533h84.479ZM801.531,55.738H750.465L776-13.926Z" transform="translate(-661.573 89.579)" fill="#17009f" stroke="#17009f" stroke-miterlimit="2" stroke-width="0"/>
        <path id="path295557" d="M751.606,116.712h47.6V-65.17l-47.6,15.761Z" transform="translate(-515.575 129.16)" fill="#121bb2" stroke="#121bb2" stroke-miterlimit="2" stroke-width="0"/>
        <path id="path295559" d="M927.023-37.639A88.419,88.419,0,0,0,776.032,24.775,87.489,87.489,0,0,0,801.88,87.189,89.2,89.2,0,0,0,904.011,103.9a40.979,40.979,0,0,1-67.772,18.6l-32.783,34.359A88.438,88.438,0,0,0,952.87,92.863V24.775a87.488,87.488,0,0,0-25.848-62.414ZM864.609,65.754a41.166,41.166,0,0,1-41.294-40.979,41.436,41.436,0,0,1,41.294-41.294,41.137,41.137,0,0,1,0,82.273Z" transform="translate(-475.967 131.889)" fill="#0e36c5" stroke="#0e36c5" stroke-miterlimit="2" stroke-width="0"/>
        <path id="path295561" d="M978.556-63.487l.315,10.087a90.935,90.935,0,0,0-40.663-9.772,88.861,88.861,0,0,0-34.99,6.935,97.52,97.52,0,0,0-28.685,19.228A93.59,93.59,0,0,0,855.3-8.323a94.829,94.829,0,0,0-6.935,34.989A94.826,94.826,0,0,0,855.3,61.656a97.521,97.521,0,0,0,19.228,28.685,97.515,97.515,0,0,0,28.685,19.228,94.829,94.829,0,0,0,34.99,6.935,90.936,90.936,0,0,0,40.663-9.772l-.315,7.25h47.283V-63.487ZM959.642,63.232a42.205,42.205,0,0,1-21.435,5.989,42.782,42.782,0,0,1-42.555-42.555,42.782,42.782,0,0,1,42.555-42.555,39.579,39.579,0,0,1,23.011,6.935A38.18,38.18,0,0,1,976.664,8.7a39.5,39.5,0,0,1,4.1,17.968A42.766,42.766,0,0,1,975.088,48.1a39.594,39.594,0,0,1-15.446,15.131Z" transform="translate(-358.665 131.889)" fill="#0951d9" stroke="#0951d9" stroke-miterlimit="2" stroke-width="0"/>
        <path id="path295563" d="M920.095,112.812h146.262V68.682H988.182l78.175-98.034V-62.765H924.823v44.131h73.131L920.095,79.4Z" transform="translate(-242.356 133.059)" fill="#056cec" stroke="#056cec" stroke-miterlimit="2" stroke-width="0"/>
        <path id="path295565" d="M1065.149,116.189a94.828,94.828,0,0,0,34.989-6.935,93.592,93.592,0,0,0,28.685-19.228,97.516,97.516,0,0,0,19.228-28.685,88.856,88.856,0,0,0,6.935-34.989,87.765,87.765,0,0,0-6.935-34.989,93.585,93.585,0,0,0-19.228-28.685,97.52,97.52,0,0,0-28.685-19.228,91.736,91.736,0,0,0-69.979,0,97.519,97.519,0,0,0-28.685,19.228A97.517,97.517,0,0,0,982.246-8.638a93.573,93.573,0,0,0-6.935,34.989,94.826,94.826,0,0,0,6.935,34.989,97.517,97.517,0,0,0,19.228,28.685,97.518,97.518,0,0,0,28.685,19.228A94.828,94.828,0,0,0,1065.149,116.189Zm0-132.393A42.782,42.782,0,0,1,1107.7,26.351a42.555,42.555,0,1,1-85.109,0A42.782,42.782,0,0,1,1065.149-16.2Z" transform="translate(-152.818 131.889)" fill="#0087ff" stroke="#0087ff" stroke-miterlimit="2" stroke-width="0"/>
      </g>
    </g>
  </g>
</svg>
